<?xml version="1.0" encoding="UTF-8" standalone="no"?>
<!-- Created with Inkscape (http://www.inkscape.org/) by Marsupilami -->
<svg
   xmlns:svg="http://www.w3.org/2000/svg"
   xmlns="http://www.w3.org/2000/svg"
   version="1.0"
   width="1024"
   height="582"
   viewBox="0 0 170.42311 96.918533"
   id="svg2656">
  <defs
     id="defs2658" />
  <g
     transform="translate(-469.07416,-661.04578)"
     id="layer1">
    <path
       d="M 553.24609,683.66931 C 551.45859,686.00931 550.43734,688.22806 549.86359,689.85431 C 549.72734,690.24181 549.61609,690.59431 549.52609,690.90681 C 551.00234,690.32306 553.48359,689.51056 556.88234,688.97931 C 560.72484,688.37931 565.49984,689.04431 569.83859,690.49056 C 574.59609,692.07556 580.46609,692.97681 588.02609,691.66681 C 592.64859,690.86681 595.38359,689.62431 597.68609,688.91181 C 618.58234,682.44306 635.33984,697.43431 632.23609,714.01056 C 628.03359,736.46056 593.66484,749.08056 550.85609,749.08056 C 506.47984,749.08056 469.33234,732.56431 469.33234,711.18056 C 469.33234,689.79681 506.47984,673.27931 550.85609,673.27931 C 554.78359,673.27931 558.64484,673.40806 562.42234,673.65556 L 565.05984,673.82806 L 562.80609,675.21056 C 559.30359,677.35681 555.94359,680.13681 553.24609,683.66931"
       style="fill:#ed1c24;fill-opacity:1;fill-rule:nonzero;stroke:none"
       id="path20846" />
    <path
       d="M 139.65625,31.59375 C 136.9675,31.59375 134.375,33.989998 134.375,36.78125 C 134.375,38.7975 135.91,40.375 138.125,40.375 C 140.815,40.375 143.40625,38.009999 143.40625,35.21875 C 143.40625,33.2025 141.87251,31.59375 139.65625,31.59375 z M 47.46875,32.34375 L 9.875,69.6875 C 11.0075,70.6525 12.22375,71.592497 13.53125,72.5 L 26.78125,58.6875 L 40.1875,58.6875 L 37.75,70.96875 L 47.21875,70.96875 L 54.28125,32.34375 L 47.46875,32.34375 z M 60.53125,32.34375 C 60.53125,32.34375 55.312499,59.316252 55.3125,61.375 C 55.3125,65.54125 55.321254,72.487503 67.125,72 C 77.12375,71.5875 82.750003,62.207499 82.75,53.9375 C 82.8025,47.94125 79.455,44.156249 73.8125,44.15625 C 70.015,44.15625 67.062502,46.071251 65.375,48.65625 L 68.3125,32.34375 L 60.53125,32.34375 z M 99.5625,34.8125 L 91.15625,38.28125 L 89.96875,44.84375 L 86.28125,44.84375 L 85.6875,48.15625 L 89.4375,48.15625 L 86.6875,63.25 C 86.47625,64.335 86.374997,65.308747 86.375,66.1875 C 86.375,69.59875 87.96875,71.718749 92.1875,71.71875 C 94.71875,71.71875 96.876253,70.953751 98.40625,70.4375 L 98.78125,68.3125 C 98.14875,68.51875 96.872499,68.65625 96.1875,68.65625 C 94.6575,68.65625 94.031248,68.15375 94.03125,66.34375 C 94.03125,65.6725 94.185002,64.772502 94.34375,63.6875 L 97.1875,48.15625 L 101.8125,48.15625 L 102.40625,44.84375 L 97.75,44.84375 L 99.5625,34.8125 z M 43.875,40.625 L 40.90625,55.09375 L 30,55.09375 L 43.875,40.625 z M 133.5,44.09375 L 128.71875,70.96875 L 136.46875,70.96875 L 141.25,44.09375 L 133.5,44.09375 z M 117.3125,44.15625 C 107.8725,44.15625 101.6875,51.311251 101.6875,60.71875 C 101.6875,67.2325 105.28375,71.718749 113.40625,71.71875 C 116.62375,71.71875 118.95125,70.934998 122.0625,69.28125 L 123.90625,66.125 L 123.3125,65.625 C 121.46625,66.96875 118.57125,68.156252 116.09375,68.15625 C 112.24375,68.15625 109.90625,66.142501 109.90625,61.59375 C 109.90625,60.56 110.03875,59.355 110.25,58.0625 L 126.46875,58.0625 C 126.785,56.305 126.96875,54.697499 126.96875,53.25 C 126.96875,47.56375 124.485,44.156249 117.3125,44.15625 z M 116.8125,46.59375 C 118.9225,46.59375 119.625,48.696252 119.625,51.28125 C 119.625,52.47 119.39875,53.791249 119.1875,55.03125 L 110.8125,55.03125 C 111.60375,50.74125 113.49,46.59375 116.8125,46.59375 z M 70.90625,47.71875 C 73.64875,47.71875 74.539998,49.94 74.59375,52.9375 C 74.59375,59.39875 71.645003,69.1875 66.6875,69.1875 C 63.89125,69.1875 63.09375,66.7575 63.09375,63.65625 C 63.09375,57.09125 65.368753,47.718749 70.90625,47.71875 z "
       transform="translate(469.07416,661.04578)"
       style="fill:#ffffff;fill-opacity:1;fill-rule:evenodd;stroke:none"
       id="path20868" />
    <path
       d="M 104.8125,0 C 104.555,0.23375 105.18625,2.0337501 106.375,3.5625 C 108.32,6.065 110.66,7.1325001 113.96875,7.40625 C 119.1625,7.8375 125.02501,7.1212497 132.21875,10.03125 C 132.71625,10.2325 131.53374,8.4212498 130.1875,7.0625 C 128.315,5.1725 125.465,3.3250001 122.21875,1.8125 C 118.97125,0.29875 114.645,-0.40249999 110.6875,0.46875 C 106.74875,1.33625 104.96875,-0.1425 104.8125,0 z M 119.375,11 C 118.39938,11.025849 117.39879,11.094453 116.40625,11.15625 C 110.37625,11.53125 97.929999,13.0575 88.28125,23.875 C 92.885,22.95 97.657502,24.242499 102.03125,25.65625 C 114.46875,29.67875 122.15,25.500001 127.09375,24.1875 C 156.86875,16.285 168.87126,38.227501 167.46875,50.375 C 164.58375,75.3525 133.77625,92.000003 81.78125,92 C 47.2525,92 13.66625,81.843747 1.28125,64.78125 C 0.865,64.225 0.49,63.640002 0.125,63.0625 C 0.08,62.9725 -0.04625,63.0275 0,63.125 C 9.69125,84.33125 44.886252,96.906247 81.84375,96.90625 C 136.5975,96.90625 169.10625,74.068751 170.375,48.625 C 171.47816,26.506016 149.61908,10.198674 119.375,11 z "
       transform="translate(469.07416,661.04578)"
       style="fill:#00a650;fill-opacity:1;fill-rule:nonzero;stroke:none"
       id="path20872" />
  </g>
</svg>
